:SAMPLES-PER-SECOND 30
:FULLY-SPECIFIED
:DEGREES
159
root  -9.31452 34.2556 5.11942 -177.618 -61.6021 171.546
RightUpLeg  -40.3466 -7.98364 0.164867
RightLeg  51.0219 -6.33597 -8.68658
RightFoot  -5.59335 0.341459 -7.45837
RightToes  1.45519e-009 0 -3.6325e-017
Spine  31.6606 -2.88214 6.60978
Spine1  3.33291 -1.37258 0.42103
HEad  -36.6748 -20.1941 4.95633
LeftShoulder1  0.349662 2.26109 -21.7048
LeftArm  5.62713 -17.2602 -65.376
LeftForeArm  61.0854 -78.8691 -72.1978
LeftHand  0.0555779 6.97267 6.24345
RightShoulder  -0.125025 -3.85981 26.3712
RightArm  17.9992 -4.42137 45.9214
RightForeArm  148.076 71.0464 148.725
RightHand  -0.268736 6.57135 -2.94521
LeftUpLeg  -22.6358 27.0595 2.65511
LeftLeg  77.1648 0.905122 6.16804
LeftFoot  -4.55335 0.314047 -6.66631
LeftToes  -2.53752e-010 -2.07034e-011 -2.70101e-011
160
root  -10.3542 33.5208 5.09911 179.305 -58.9588 173.244
RightUpLeg  -40.614 -6.33836 0.2311
RightLeg  56.9358 -5.10637 -8.83863
RightFoot  -9.13861 0.0621347 -6.49325
RightToes  1.45519e-009 0 -3.6325e-017
Spine  31.7635 -3.79844 6.57331
Spine1  3.41145 -2.80334 2.54397
HEad  -34.9689 -20.3541 4.4108
LeftShoulder1  0.375556 2.13121 -20.9854
LeftArm  7.38696 -20.7053 -66.8107
LeftForeArm  49.3035 -77.8924 -61.3478
LeftHand  0.0736016 7.29379 6.37715
RightShoulder  -0.118673 -3.84682 25.8187
RightArm  15.366 -4.34716 48.5815
RightForeArm  148.706 71.4054 148.201
RightHand  -0.206142 6.68202 -2.33045
LeftUpLeg  -27.3076 23.4116 3.38424
LeftLeg  85.9392 0.0147655 5.78432
LeftFoot  2.44686 -0.084912 1.07996
LeftToes  -2.53752e-010 -2.07034e-011 -2.70101e-011
161
root  -11.4066 33.1762 5.14352 177.485 -54.5303 174.105
RightUpLeg  -40.0875 -4.3941 0.0859613
RightLeg  60.0022 -3.4927 -7.03592
RightFoot  -11.6296 -0.0949861 -6.12665
RightToes  1.45519e-009 0 -3.6325e-017
Spine  32.8688 -4.03447 6.16666
Spine1  2.45611 -3.17396 3.10849
HEad  -34.9805 -19.366 4.68776
LeftShoulder1  0.520914 1.50851 -19.5543
LeftArm  9.33403 -24.1816 -69.7021
LeftForeArm  37.2757 -76.1079 -49.716
LeftHand  0.0794717 7.69859 5.71099
RightShoulder  -0.215899 -4.14442 26.1025
RightArm  12.3454 -4.91689 49.8857
RightForeArm  145.647 71.1537 148.187
RightHand  -0.432215 7.59956 -4.16843
LeftUpLeg  -30.5772 20.783 4.71251
LeftLeg  90.1032 -0.345948 1.37908
LeftFoot  -2.12529 -0.0600804 0.823363
LeftToes  -2.53752e-010 -2.07034e-011 -2.70101e-011
162
root  -12.3977 32.936 5.22392 176.522 -49.627 174.718
RightUpLeg  -39.9345 -3.3035 0.039796
RightLeg  62.0411 -1.62718 -3.91607
RightFoot  -13.7545 -0.223168 -6.18587
RightToes  1.45519e-009 0 -3.6325e-017
Spine  34.0202 -3.70488 4.81587
Spine1  1.84383 -3.55262 4.91677
HEad  -35.9134 -17.5934 4.87677
LeftShoulder1  0.633702 0.973623 -18.4694
LeftArm  11.3285 -27.8616 -72.6775
LeftForeArm  27.096 -73.8448 -40.9804
LeftHand  0.0724365 7.87418 5.05221
RightShoulder  -0.25588 -4.26225 26.3528
RightArm  10.5557 -4.73697 50.3136
RightForeArm  141.413 70.6557 148.416
RightHand  -0.777387 8.84878 -6.73029
LeftUpLeg  -33.4489 18.9383 6.68794
LeftLeg  89.6328 -0.278179 0.585698
LeftFoot  -5.46275 0.0618985 -0.53282
LeftToes  -2.53752e-010 -2.07034e-011 -2.70101e-011
163
root  -13.3379 32.9116 5.35603 176.272 -44.6612 174.793
RightUpLeg  -39.6088 -2.51151 -0.450258
RightLeg  62.8337 0.135027 -0.305847
RightFoot  -14.8853 -0.294912 -6.26986
RightToes  1.45519e-009 0 -3.6325e-017
Spine  35.6691 -3.19057 2.7906
Spine1  0.775083 -4.01846 7.08654
HEad  -36.4611 -15.1698 4.35383
LeftShoulder1  0.737803 0.377616 -16.8739
LeftArm  12.7403 -30.8296 -75.6572
LeftForeArm  19.6641 -71.6992 -35.4098
LeftHand  0.066199 7.49314 5.46508
RightShoulder  -0.248342 -4.24036 26.2568
RightArm  9.73036 -5.04616 50.1811
RightForeArm  143.946 69.9372 149.938
RightHand  -0.769162 9.10128 -6.53446
LeftUpLeg  -35.2145 17.2815 8.88687
LeftLeg  84.5756 -0.322621 -0.597652
LeftFoot  -8.23037 0.0832723 -1.16193
LeftToes  -2.53752e-010 -2.07034e-011 -2.70101e-011
164
root  -14.267 32.9195 5.5562 176.711 -39.9085 174.968
RightUpLeg  -40.1754 -1.89285 -1.0064
RightLeg  63.2871 1.74734 3.18785
RightFoot  -15.4599 -0.33711 -6.46927
RightToes  1.45519e-009 0 -3.6325e-017
Spine  37.1839 -2.87257 1.02207
Spine1  -0.704898 -4.63339 9.24562
HEad  -36.8823 -12.3525 3.45734
LeftShoulder1  0.80021 -0.0975343 -15.4113
LeftArm  13.2645 -32.9701 -77.6874
LeftForeArm  15.5977 -69.7904 -31.4819
LeftHand  0.038586 7.24734 4.49735
RightShoulder  -0.132701 -3.89092 25.8373
RightArm  10.3844 -5.82875 49.5124
RightForeArm  145.962 69.6277 150.679
RightHand  -0.633843 9.03881 -5.4693
LeftUpLeg  -36.3325 15.5855 11.208
LeftLeg  76.6074 -0.947951 -3.28904
LeftFoot  -10.9243 0.0678057 -2.21684
LeftToes  -2.53752e-010 -2.07034e-011 -2.70101e-011
165
root  -15.1759 32.9351 5.76244 177.52 -34.9859 174.939
RightUpLeg  -41.1887 -0.181673 -1.84019
RightLeg  63.6502 2.98449 5.96658
RightFoot  -15.6533 -0.341825 -6.2634
RightToes  1.45519e-009 0 -3.6325e-017
Spine  37.9117 -2.47273 -0.244327
Spine1  -1.02988 -4.82649 10.1674
HEad  -37.3226 -10.0733 2.84883
LeftShoulder1  0.863583 -0.639761 -13.8704
LeftArm  13.8377 -35.368 -79.2576
LeftForeArm  11.4724 -67.4442 -27.6442
LeftHand  0.0391672 7.28589 4.47762
RightShoulder  -0.0766603 -3.71634 25.7843
RightArm  11.1029 -6.60897 49.243
RightForeArm  146.964 69.5342 150.951
RightHand  -0.562466 8.1793 -5.17256
LeftUpLeg  -36.0403 13.9536 13.4168
LeftLeg  66.9639 -2.37362 -5.41939
LeftFoot  -12.9256 0.0170594 -4.69249
LeftToes  -2.53752e-010 -2.07034e-011 -2.70101e-011
166
root  -16.1088 32.8623 5.98866 178.12 -30.2938 175.129
RightUpLeg  -42.4883 1.76102 -2.7301
RightLeg  64.3763 3.97783 8.40396
RightFoot  -15.8469 -0.344744 -6.03771
RightToes  1.45519e-009 0 -3.6325e-017
Spine  38.961 -2.40154 -0.844887
Spine1  -1.66348 -4.99215 10.4665
HEad  -37.9257 -7.80611 2.18102
LeftShoulder1  0.879982 -0.863113 -13.1269
LeftArm  13.3227 -36.4555 -80.1988
LeftForeArm  9.41396 -65.6058 -25.1339
LeftHand  0.0401598 7.5937 3.9905
RightShoulder  -0.0814209 -3.72712 25.9747
RightArm  11.9187 -7.29243 49.363
RightForeArm  145.895 69.9016 150.256
RightHand  -0.645474 8.85623 -5.63244
LeftUpLeg  -34.9873 12.1428 15.4084
LeftLeg  58.5461 -4.09188 -6.67304
LeftFoot  -13.5834 -0.0481302 -6.79976
LeftToes  -2.53752e-010 -2.07034e-011 -2.70101e-011
167
root  -17.099 32.6931 6.23904 178.508 -25.8849 175.26
RightUpLeg  -43.8621 3.47031 -3.9148
RightLeg  65.4698 4.81953 10.833
RightFoot  -16.3153 -0.347487 -5.46701
RightToes  1.45519e-009 0 -3.6325e-017
Spine  39.4169 -2.63473 -1.03812
Spine1  -0.945995 -5.28029 9.98156
HEad  -38.8778 -4.98066 1.3327
LeftShoulder1  0.861584 -0.888067 -12.5431
LeftArm  11.6962 -37.0257 -80.819
LeftForeArm  8.57731 -64.5815 -23.8971
LeftHand  0.0382178 7.28068 4.40525
RightShoulder  -0.15637 -3.94813 26.8661
RightArm  12.0074 -7.3553 49.9676
RightForeArm  146.194 70.2554 149.749
RightHand  -0.621173 8.81567 -5.44999
LeftUpLeg  -33.9242 11.1111 16.4231
LeftLeg  55.8231 -4.95806 -7.3189
LeftFoot  -14.889 -0.275471 -11.9779
LeftToes  -2.53752e-010 -2.07034e-011 -2.70101e-011
168
root  -18.0996 32.4433 6.501 178.825 -21.8284 175.642
RightUpLeg  -45.5873 5.33554 -5.11846
RightLeg  66.7867 5.42231 13.0125
RightFoot  -16.8622 -0.340453 -4.68604
RightToes  1.45519e-009 0 -3.6325e-017
Spine  39.8014 -2.73921 -0.624869
Spine1  -0.524832 -5.32896 10.349
HEad  -39.7564 -2.96505 -0.323797
LeftShoulder1  0.876487 -0.678637 -14.02
LeftArm  10.5166 -36.7986 -80.6831
LeftForeArm  7.87646 -64.0995 -23.3927
LeftHand  0.0276097 7.05707 4.28526
RightShoulder  -0.0552268 -3.65118 25.5975
RightArm  11.3099 -7.82756 51.6859
RightForeArm  146.818 70.3297 149.718
RightHand  -0.597595 8.30648 -5.42128
LeftUpLeg  -34.3786 12.422 15.9439
LeftLeg  60.2846 -3.70936 -6.45508
LeftFoot  -19.5969 -0.672398 -10.8994
LeftToes  -2.53752e-010 -2.07034e-011 -2.70101e-011
